solid OpenSCAD_Model
  facet normal 1 -0 0
    outer loop
      vertex 50 0 5
      vertex 50 50 0
      vertex 50 50 5
    endloop
  endfacet
  facet normal 1 0 0
    outer loop
      vertex 50 50 0
      vertex 50 0 5
      vertex 50 0 0
    endloop
  endfacet
  facet normal 0 0 1
    outer loop
      vertex 49 49 1
      vertex 46 46 1
      vertex 49 1 1
    endloop
  endfacet
  facet normal 0 0 1
    outer loop
      vertex 49 49 1
      vertex 4 46 1
      vertex 46 46 1
    endloop
  endfacet
  facet normal 0 0 1
    outer loop
      vertex 4 46 1
      vertex 1 49 1
      vertex 4 4 1
    endloop
  endfacet
  facet normal -0 0 1
    outer loop
      vertex 1 49 1
      vertex 4 46 1
      vertex 49 49 1
    endloop
  endfacet
  facet normal -0 0 1
    outer loop
      vertex 46 4 1
      vertex 49 1 1
      vertex 46 46 1
    endloop
  endfacet
  facet normal -0 0 1
    outer loop
      vertex 4 4 1
      vertex 49 1 1
      vertex 46 4 1
    endloop
  endfacet
  facet normal 0 0 1
    outer loop
      vertex 4 4 1
      vertex 1 1 1
      vertex 49 1 1
    endloop
  endfacet
  facet normal 0 0 1
    outer loop
      vertex 1 1 1
      vertex 4 4 1
      vertex 1 49 1
    endloop
  endfacet
  facet normal 0 0 1
    outer loop
      vertex 45 45 1
      vertex 41 41 1
      vertex 45 5 1
    endloop
  endfacet
  facet normal 0 0 1
    outer loop
      vertex 45 45 1
      vertex 9 41 1
      vertex 41 41 1
    endloop
  endfacet
  facet normal 0 0 1
    outer loop
      vertex 9 41 1
      vertex 5 45 1
      vertex 9 9 1
    endloop
  endfacet
  facet normal -0 0 1
    outer loop
      vertex 5 45 1
      vertex 9 41 1
      vertex 45 45 1
    endloop
  endfacet
  facet normal -0 0 1
    outer loop
      vertex 41 9 1
      vertex 45 5 1
      vertex 41 41 1
    endloop
  endfacet
  facet normal -0 0 1
    outer loop
      vertex 9 9 1
      vertex 45 5 1
      vertex 41 9 1
    endloop
  endfacet
  facet normal 0 0 1
    outer loop
      vertex 9 9 1
      vertex 5 5 1
      vertex 45 5 1
    endloop
  endfacet
  facet normal 0 0 1
    outer loop
      vertex 5 5 1
      vertex 9 9 1
      vertex 5 45 1
    endloop
  endfacet
  facet normal 0 0 -1
    outer loop
      vertex 50 0 0
      vertex 41 9 0
      vertex 50 50 0
    endloop
  endfacet
  facet normal 0 0 -1
    outer loop
      vertex 50 0 0
      vertex 9 9 0
      vertex 41 9 0
    endloop
  endfacet
  facet normal -0 0 -1
    outer loop
      vertex 9 9 0
      vertex 0 0 0
      vertex 9 41 0
    endloop
  endfacet
  facet normal 0 0 -1
    outer loop
      vertex 0 0 0
      vertex 9 9 0
      vertex 50 0 0
    endloop
  endfacet
  facet normal 0 0 -1
    outer loop
      vertex 41 41 0
      vertex 50 50 0
      vertex 41 9 0
    endloop
  endfacet
  facet normal 0 0 -1
    outer loop
      vertex 9 41 0
      vertex 50 50 0
      vertex 41 41 0
    endloop
  endfacet
  facet normal 0 0 -1
    outer loop
      vertex 9 41 0
      vertex 0 50 0
      vertex 50 50 0
    endloop
  endfacet
  facet normal 0 0 -1
    outer loop
      vertex 0 50 0
      vertex 9 41 0
      vertex 0 0 0
    endloop
  endfacet
  facet normal -1 0 0
    outer loop
      vertex 0 0 0
      vertex 0 50 5
      vertex 0 50 0
    endloop
  endfacet
  facet normal -1 -0 0
    outer loop
      vertex 0 50 5
      vertex 0 0 0
      vertex 0 0 5
    endloop
  endfacet
  facet normal 0 1 -0
    outer loop
      vertex 41 9 0
      vertex 9 9 1
      vertex 41 9 1
    endloop
  endfacet
  facet normal 0 1 0
    outer loop
      vertex 9 9 1
      vertex 41 9 0
      vertex 9 9 0
    endloop
  endfacet
  facet normal 0 -1 0
    outer loop
      vertex 0 0 0
      vertex 50 0 5
      vertex 0 0 5
    endloop
  endfacet
  facet normal 0 -1 -0
    outer loop
      vertex 50 0 5
      vertex 0 0 0
      vertex 50 0 0
    endloop
  endfacet
  facet normal 1 -0 0
    outer loop
      vertex 9 9 1
      vertex 9 41 0
      vertex 9 41 1
    endloop
  endfacet
  facet normal 1 0 0
    outer loop
      vertex 9 41 0
      vertex 9 9 1
      vertex 9 9 0
    endloop
  endfacet
  facet normal 0 1 -0
    outer loop
      vertex 50 50 0
      vertex 0 50 5
      vertex 50 50 5
    endloop
  endfacet
  facet normal 0 1 0
    outer loop
      vertex 0 50 5
      vertex 50 50 0
      vertex 0 50 0
    endloop
  endfacet
  facet normal 0 -1 0
    outer loop
      vertex 9 41 0
      vertex 41 41 1
      vertex 9 41 1
    endloop
  endfacet
  facet normal 0 -1 -0
    outer loop
      vertex 41 41 1
      vertex 9 41 0
      vertex 41 41 0
    endloop
  endfacet
  facet normal -1 0 0
    outer loop
      vertex 41 9 0
      vertex 41 41 1
      vertex 41 41 0
    endloop
  endfacet
  facet normal -1 -0 0
    outer loop
      vertex 41 41 1
      vertex 41 9 0
      vertex 41 9 1
    endloop
  endfacet
  facet normal 0 0 1
    outer loop
      vertex 50 50 5
      vertex 49 49 5
      vertex 50 0 5
    endloop
  endfacet
  facet normal 0 0 1
    outer loop
      vertex 50 50 5
      vertex 1 49 5
      vertex 49 49 5
    endloop
  endfacet
  facet normal 0 0 1
    outer loop
      vertex 1 49 5
      vertex 0 50 5
      vertex 1 1 5
    endloop
  endfacet
  facet normal -0 0 1
    outer loop
      vertex 0 50 5
      vertex 1 49 5
      vertex 50 50 5
    endloop
  endfacet
  facet normal -0 0 1
    outer loop
      vertex 49 1 5
      vertex 50 0 5
      vertex 49 49 5
    endloop
  endfacet
  facet normal -0 0 1
    outer loop
      vertex 1 1 5
      vertex 50 0 5
      vertex 49 1 5
    endloop
  endfacet
  facet normal 0 0 1
    outer loop
      vertex 1 1 5
      vertex 0 0 5
      vertex 50 0 5
    endloop
  endfacet
  facet normal 0 0 1
    outer loop
      vertex 0 0 5
      vertex 1 1 5
      vertex 0 50 5
    endloop
  endfacet
  facet normal 0 1 -0
    outer loop
      vertex 49 1 1
      vertex 1 1 5
      vertex 49 1 5
    endloop
  endfacet
  facet normal 0 1 0
    outer loop
      vertex 1 1 5
      vertex 49 1 1
      vertex 1 1 1
    endloop
  endfacet
  facet normal 1 -0 0
    outer loop
      vertex 1 1 5
      vertex 1 49 1
      vertex 1 49 5
    endloop
  endfacet
  facet normal 1 0 0
    outer loop
      vertex 1 49 1
      vertex 1 1 5
      vertex 1 1 1
    endloop
  endfacet
  facet normal 0 -1 0
    outer loop
      vertex 1 49 1
      vertex 49 49 5
      vertex 1 49 5
    endloop
  endfacet
  facet normal 0 -1 -0
    outer loop
      vertex 49 49 5
      vertex 1 49 1
      vertex 49 49 1
    endloop
  endfacet
  facet normal -1 0 0
    outer loop
      vertex 49 1 1
      vertex 49 49 5
      vertex 49 49 1
    endloop
  endfacet
  facet normal -1 -0 0
    outer loop
      vertex 49 49 5
      vertex 49 1 1
      vertex 49 1 5
    endloop
  endfacet
  facet normal 1 -0 0
    outer loop
      vertex 46 4 5
      vertex 46 46 1
      vertex 46 46 5
    endloop
  endfacet
  facet normal 1 0 0
    outer loop
      vertex 46 46 1
      vertex 46 4 5
      vertex 46 4 1
    endloop
  endfacet
  facet normal 0 0 1
    outer loop
      vertex 46 46 5
      vertex 45 45 5
      vertex 46 4 5
    endloop
  endfacet
  facet normal 0 0 1
    outer loop
      vertex 46 46 5
      vertex 5 45 5
      vertex 45 45 5
    endloop
  endfacet
  facet normal 0 0 1
    outer loop
      vertex 5 45 5
      vertex 4 46 5
      vertex 5 5 5
    endloop
  endfacet
  facet normal -0 0 1
    outer loop
      vertex 4 46 5
      vertex 5 45 5
      vertex 46 46 5
    endloop
  endfacet
  facet normal -0 0 1
    outer loop
      vertex 45 5 5
      vertex 46 4 5
      vertex 45 45 5
    endloop
  endfacet
  facet normal -0 0 1
    outer loop
      vertex 5 5 5
      vertex 46 4 5
      vertex 45 5 5
    endloop
  endfacet
  facet normal 0 0 1
    outer loop
      vertex 5 5 5
      vertex 4 4 5
      vertex 46 4 5
    endloop
  endfacet
  facet normal 0 0 1
    outer loop
      vertex 4 4 5
      vertex 5 5 5
      vertex 4 46 5
    endloop
  endfacet
  facet normal -1 0 0
    outer loop
      vertex 4 4 1
      vertex 4 46 5
      vertex 4 46 1
    endloop
  endfacet
  facet normal -1 -0 0
    outer loop
      vertex 4 46 5
      vertex 4 4 1
      vertex 4 4 5
    endloop
  endfacet
  facet normal 0 1 -0
    outer loop
      vertex 45 5 1
      vertex 5 5 5
      vertex 45 5 5
    endloop
  endfacet
  facet normal 0 1 0
    outer loop
      vertex 5 5 5
      vertex 45 5 1
      vertex 5 5 1
    endloop
  endfacet
  facet normal 0 -1 0
    outer loop
      vertex 4 4 1
      vertex 46 4 5
      vertex 4 4 5
    endloop
  endfacet
  facet normal 0 -1 -0
    outer loop
      vertex 46 4 5
      vertex 4 4 1
      vertex 46 4 1
    endloop
  endfacet
  facet normal 1 -0 0
    outer loop
      vertex 5 5 5
      vertex 5 45 1
      vertex 5 45 5
    endloop
  endfacet
  facet normal 1 0 0
    outer loop
      vertex 5 45 1
      vertex 5 5 5
      vertex 5 5 1
    endloop
  endfacet
  facet normal 0 1 -0
    outer loop
      vertex 46 46 1
      vertex 4 46 5
      vertex 46 46 5
    endloop
  endfacet
  facet normal 0 1 0
    outer loop
      vertex 4 46 5
      vertex 46 46 1
      vertex 4 46 1
    endloop
  endfacet
  facet normal 0 -1 0
    outer loop
      vertex 5 45 1
      vertex 45 45 5
      vertex 5 45 5
    endloop
  endfacet
  facet normal 0 -1 -0
    outer loop
      vertex 45 45 5
      vertex 5 45 1
      vertex 45 45 1
    endloop
  endfacet
  facet normal -1 0 0
    outer loop
      vertex 45 5 1
      vertex 45 45 5
      vertex 45 45 1
    endloop
  endfacet
  facet normal -1 -0 0
    outer loop
      vertex 45 45 5
      vertex 45 5 1
      vertex 45 5 5
    endloop
  endfacet
  facet normal 1 -0 0
    outer loop
      vertex 50 52 5
      vertex 50 102 0
      vertex 50 102 5
    endloop
  endfacet
  facet normal 1 0 0
    outer loop
      vertex 50 102 0
      vertex 50 52 5
      vertex 50 52 0
    endloop
  endfacet
  facet normal 0 0 1
    outer loop
      vertex 49 101 1
      vertex 46 98 1
      vertex 49 53 1
    endloop
  endfacet
  facet normal 0 0 1
    outer loop
      vertex 49 101 1
      vertex 4 98 1
      vertex 46 98 1
    endloop
  endfacet
  facet normal 0 0 1
    outer loop
      vertex 4 98 1
      vertex 1 101 1
      vertex 4 56 1
    endloop
  endfacet
  facet normal -0 0 1
    outer loop
      vertex 1 101 1
      vertex 4 98 1
      vertex 49 101 1
    endloop
  endfacet
  facet normal -0 0 1
    outer loop
      vertex 46 56 1
      vertex 49 53 1
      vertex 46 98 1
    endloop
  endfacet
  facet normal -0 0 1
    outer loop
      vertex 4 56 1
      vertex 49 53 1
      vertex 46 56 1
    endloop
  endfacet
  facet normal 0 0 1
    outer loop
      vertex 4 56 1
      vertex 1 53 1
      vertex 49 53 1
    endloop
  endfacet
  facet normal 0 0 1
    outer loop
      vertex 1 53 1
      vertex 4 56 1
      vertex 1 101 1
    endloop
  endfacet
  facet normal 0 0 1
    outer loop
      vertex 45 97 1
      vertex 41 93 1
      vertex 45 57 1
    endloop
  endfacet
  facet normal 0 0 1
    outer loop
      vertex 45 97 1
      vertex 9 93 1
      vertex 41 93 1
    endloop
  endfacet
  facet normal 0 0 1
    outer loop
      vertex 9 93 1
      vertex 5 97 1
      vertex 9 61 1
    endloop
  endfacet
  facet normal -0 0 1
    outer loop
      vertex 5 97 1
      vertex 9 93 1
      vertex 45 97 1
    endloop
  endfacet
  facet normal -0 0 1
    outer loop
      vertex 41 61 1
      vertex 45 57 1
      vertex 41 93 1
    endloop
  endfacet
  facet normal -0 0 1
    outer loop
      vertex 9 61 1
      vertex 45 57 1
      vertex 41 61 1
    endloop
  endfacet
  facet normal 0 0 1
    outer loop
      vertex 9 61 1
      vertex 5 57 1
      vertex 45 57 1
    endloop
  endfacet
  facet normal 0 0 1
    outer loop
      vertex 5 57 1
      vertex 9 61 1
      vertex 5 97 1
    endloop
  endfacet
  facet normal 0 0 -1
    outer loop
      vertex 50 52 0
      vertex 41 61 0
      vertex 50 102 0
    endloop
  endfacet
  facet normal 0 0 -1
    outer loop
      vertex 50 52 0
      vertex 9 61 0
      vertex 41 61 0
    endloop
  endfacet
  facet normal -0 0 -1
    outer loop
      vertex 9 61 0
      vertex 0 52 0
      vertex 9 93 0
    endloop
  endfacet
  facet normal 0 0 -1
    outer loop
      vertex 0 52 0
      vertex 9 61 0
      vertex 50 52 0
    endloop
  endfacet
  facet normal 0 0 -1
    outer loop
      vertex 41 93 0
      vertex 50 102 0
      vertex 41 61 0
    endloop
  endfacet
  facet normal 0 0 -1
    outer loop
      vertex 9 93 0
      vertex 50 102 0
      vertex 41 93 0
    endloop
  endfacet
  facet normal 0 0 -1
    outer loop
      vertex 9 93 0
      vertex 0 102 0
      vertex 50 102 0
    endloop
  endfacet
  facet normal 0 0 -1
    outer loop
      vertex 0 102 0
      vertex 9 93 0
      vertex 0 52 0
    endloop
  endfacet
  facet normal -1 0 0
    outer loop
      vertex 0 52 0
      vertex 0 102 5
      vertex 0 102 0
    endloop
  endfacet
  facet normal -1 -0 0
    outer loop
      vertex 0 102 5
      vertex 0 52 0
      vertex 0 52 5
    endloop
  endfacet
  facet normal 0 1 -0
    outer loop
      vertex 41 61 0
      vertex 9 61 1
      vertex 41 61 1
    endloop
  endfacet
  facet normal 0 1 0
    outer loop
      vertex 9 61 1
      vertex 41 61 0
      vertex 9 61 0
    endloop
  endfacet
  facet normal 0 -1 0
    outer loop
      vertex 0 52 0
      vertex 50 52 5
      vertex 0 52 5
    endloop
  endfacet
  facet normal 0 -1 -0
    outer loop
      vertex 50 52 5
      vertex 0 52 0
      vertex 50 52 0
    endloop
  endfacet
  facet normal 1 -0 0
    outer loop
      vertex 9 61 1
      vertex 9 93 0
      vertex 9 93 1
    endloop
  endfacet
  facet normal 1 0 0
    outer loop
      vertex 9 93 0
      vertex 9 61 1
      vertex 9 61 0
    endloop
  endfacet
  facet normal 0 1 -0
    outer loop
      vertex 50 102 0
      vertex 0 102 5
      vertex 50 102 5
    endloop
  endfacet
  facet normal 0 1 0
    outer loop
      vertex 0 102 5
      vertex 50 102 0
      vertex 0 102 0
    endloop
  endfacet
  facet normal 0 -1 0
    outer loop
      vertex 9 93 0
      vertex 41 93 1
      vertex 9 93 1
    endloop
  endfacet
  facet normal 0 -1 -0
    outer loop
      vertex 41 93 1
      vertex 9 93 0
      vertex 41 93 0
    endloop
  endfacet
  facet normal -1 0 0
    outer loop
      vertex 41 61 0
      vertex 41 93 1
      vertex 41 93 0
    endloop
  endfacet
  facet normal -1 -0 0
    outer loop
      vertex 41 93 1
      vertex 41 61 0
      vertex 41 61 1
    endloop
  endfacet
  facet normal 0 0 1
    outer loop
      vertex 50 102 5
      vertex 49 101 5
      vertex 50 52 5
    endloop
  endfacet
  facet normal 0 0 1
    outer loop
      vertex 50 102 5
      vertex 1 101 5
      vertex 49 101 5
    endloop
  endfacet
  facet normal 0 0 1
    outer loop
      vertex 1 101 5
      vertex 0 102 5
      vertex 1 53 5
    endloop
  endfacet
  facet normal -0 0 1
    outer loop
      vertex 0 102 5
      vertex 1 101 5
      vertex 50 102 5
    endloop
  endfacet
  facet normal -0 0 1
    outer loop
      vertex 49 53 5
      vertex 50 52 5
      vertex 49 101 5
    endloop
  endfacet
  facet normal -0 0 1
    outer loop
      vertex 1 53 5
      vertex 50 52 5
      vertex 49 53 5
    endloop
  endfacet
  facet normal 0 0 1
    outer loop
      vertex 1 53 5
      vertex 0 52 5
      vertex 50 52 5
    endloop
  endfacet
  facet normal 0 0 1
    outer loop
      vertex 0 52 5
      vertex 1 53 5
      vertex 0 102 5
    endloop
  endfacet
  facet normal 0 1 -0
    outer loop
      vertex 49 53 1
      vertex 1 53 5
      vertex 49 53 5
    endloop
  endfacet
  facet normal 0 1 0
    outer loop
      vertex 1 53 5
      vertex 49 53 1
      vertex 1 53 1
    endloop
  endfacet
  facet normal 1 -0 0
    outer loop
      vertex 1 53 5
      vertex 1 101 1
      vertex 1 101 5
    endloop
  endfacet
  facet normal 1 0 0
    outer loop
      vertex 1 101 1
      vertex 1 53 5
      vertex 1 53 1
    endloop
  endfacet
  facet normal 0 -1 0
    outer loop
      vertex 1 101 1
      vertex 49 101 5
      vertex 1 101 5
    endloop
  endfacet
  facet normal 0 -1 -0
    outer loop
      vertex 49 101 5
      vertex 1 101 1
      vertex 49 101 1
    endloop
  endfacet
  facet normal -1 0 0
    outer loop
      vertex 49 53 1
      vertex 49 101 5
      vertex 49 101 1
    endloop
  endfacet
  facet normal -1 -0 0
    outer loop
      vertex 49 101 5
      vertex 49 53 1
      vertex 49 53 5
    endloop
  endfacet
  facet normal 1 -0 0
    outer loop
      vertex 46 56 5
      vertex 46 98 1
      vertex 46 98 5
    endloop
  endfacet
  facet normal 1 0 0
    outer loop
      vertex 46 98 1
      vertex 46 56 5
      vertex 46 56 1
    endloop
  endfacet
  facet normal 0 0 1
    outer loop
      vertex 46 98 5
      vertex 45 97 5
      vertex 46 56 5
    endloop
  endfacet
  facet normal 0 0 1
    outer loop
      vertex 46 98 5
      vertex 5 97 5
      vertex 45 97 5
    endloop
  endfacet
  facet normal 0 0 1
    outer loop
      vertex 5 97 5
      vertex 4 98 5
      vertex 5 57 5
    endloop
  endfacet
  facet normal -0 0 1
    outer loop
      vertex 4 98 5
      vertex 5 97 5
      vertex 46 98 5
    endloop
  endfacet
  facet normal -0 0 1
    outer loop
      vertex 45 57 5
      vertex 46 56 5
      vertex 45 97 5
    endloop
  endfacet
  facet normal -0 0 1
    outer loop
      vertex 5 57 5
      vertex 46 56 5
      vertex 45 57 5
    endloop
  endfacet
  facet normal 0 0 1
    outer loop
      vertex 5 57 5
      vertex 4 56 5
      vertex 46 56 5
    endloop
  endfacet
  facet normal 0 0 1
    outer loop
      vertex 4 56 5
      vertex 5 57 5
      vertex 4 98 5
    endloop
  endfacet
  facet normal -1 0 0
    outer loop
      vertex 4 56 1
      vertex 4 98 5
      vertex 4 98 1
    endloop
  endfacet
  facet normal -1 -0 0
    outer loop
      vertex 4 98 5
      vertex 4 56 1
      vertex 4 56 5
    endloop
  endfacet
  facet normal 0 1 -0
    outer loop
      vertex 45 57 1
      vertex 5 57 5
      vertex 45 57 5
    endloop
  endfacet
  facet normal 0 1 0
    outer loop
      vertex 5 57 5
      vertex 45 57 1
      vertex 5 57 1
    endloop
  endfacet
  facet normal 0 -1 0
    outer loop
      vertex 4 56 1
      vertex 46 56 5
      vertex 4 56 5
    endloop
  endfacet
  facet normal 0 -1 -0
    outer loop
      vertex 46 56 5
      vertex 4 56 1
      vertex 46 56 1
    endloop
  endfacet
  facet normal 1 -0 0
    outer loop
      vertex 5 57 5
      vertex 5 97 1
      vertex 5 97 5
    endloop
  endfacet
  facet normal 1 0 0
    outer loop
      vertex 5 97 1
      vertex 5 57 5
      vertex 5 57 1
    endloop
  endfacet
  facet normal 0 1 -0
    outer loop
      vertex 46 98 1
      vertex 4 98 5
      vertex 46 98 5
    endloop
  endfacet
  facet normal 0 1 0
    outer loop
      vertex 4 98 5
      vertex 46 98 1
      vertex 4 98 1
    endloop
  endfacet
  facet normal 0 -1 0
    outer loop
      vertex 5 97 1
      vertex 45 97 5
      vertex 5 97 5
    endloop
  endfacet
  facet normal 0 -1 -0
    outer loop
      vertex 45 97 5
      vertex 5 97 1
      vertex 45 97 1
    endloop
  endfacet
  facet normal -1 0 0
    outer loop
      vertex 45 57 1
      vertex 45 97 5
      vertex 45 97 1
    endloop
  endfacet
  facet normal -1 -0 0
    outer loop
      vertex 45 97 5
      vertex 45 57 1
      vertex 45 57 5
    endloop
  endfacet
endsolid OpenSCAD_Model
