solid OpenSCAD_Model
  facet normal -1 0 0
    outer loop
      vertex 0 0 0
      vertex 0 100 6
      vertex 0 100 0
    endloop
  endfacet
  facet normal -1 -0 0
    outer loop
      vertex 0 100 6
      vertex 0 0 0
      vertex 0 0 6
    endloop
  endfacet
  facet normal 0 0 1
    outer loop
      vertex 46 98 2
      vertex 42.6 94.6 2
      vertex 46 2 2
    endloop
  endfacet
  facet normal 0 0 1
    outer loop
      vertex 46 98 2
      vertex 5.4 94.6 2
      vertex 42.6 94.6 2
    endloop
  endfacet
  facet normal 0 0 1
    outer loop
      vertex 5.4 94.6 2
      vertex 2 98 2
      vertex 5.4 5.4 2
    endloop
  endfacet
  facet normal -0 0 1
    outer loop
      vertex 2 98 2
      vertex 5.4 94.6 2
      vertex 46 98 2
    endloop
  endfacet
  facet normal -0 0 1
    outer loop
      vertex 42.6 5.4 2
      vertex 46 2 2
      vertex 42.6 94.6 2
    endloop
  endfacet
  facet normal -0 0 1
    outer loop
      vertex 5.4 5.4 2
      vertex 46 2 2
      vertex 42.6 5.4 2
    endloop
  endfacet
  facet normal 0 0 1
    outer loop
      vertex 5.4 5.4 2
      vertex 2 2 2
      vertex 46 2 2
    endloop
  endfacet
  facet normal 0 0 1
    outer loop
      vertex 2 2 2
      vertex 5.4 5.4 2
      vertex 2 98 2
    endloop
  endfacet
  facet normal 0 0 1
    outer loop
      vertex 40.6 92.6 2
      vertex 36.6 88.6 2
      vertex 40.6 7.4 2
    endloop
  endfacet
  facet normal 0 0 1
    outer loop
      vertex 40.6 92.6 2
      vertex 11.4 88.6 2
      vertex 36.6 88.6 2
    endloop
  endfacet
  facet normal 0 0 1
    outer loop
      vertex 11.4 88.6 2
      vertex 7.4 92.6 2
      vertex 11.4 11.4 2
    endloop
  endfacet
  facet normal -0 0 1
    outer loop
      vertex 7.4 92.6 2
      vertex 11.4 88.6 2
      vertex 40.6 92.6 2
    endloop
  endfacet
  facet normal -0 0 1
    outer loop
      vertex 36.6 11.4 2
      vertex 40.6 7.4 2
      vertex 36.6 88.6 2
    endloop
  endfacet
  facet normal -0 0 1
    outer loop
      vertex 11.4 11.4 2
      vertex 40.6 7.4 2
      vertex 36.6 11.4 2
    endloop
  endfacet
  facet normal 0 0 1
    outer loop
      vertex 11.4 11.4 2
      vertex 7.4 7.4 2
      vertex 40.6 7.4 2
    endloop
  endfacet
  facet normal 0 0 1
    outer loop
      vertex 7.4 7.4 2
      vertex 11.4 11.4 2
      vertex 7.4 92.6 2
    endloop
  endfacet
  facet normal 1 -0 0
    outer loop
      vertex 48 0 6
      vertex 48 100 0
      vertex 48 100 6
    endloop
  endfacet
  facet normal 1 0 0
    outer loop
      vertex 48 100 0
      vertex 48 0 6
      vertex 48 0 0
    endloop
  endfacet
  facet normal 0 1 -0
    outer loop
      vertex 36.6 11.4 0
      vertex 11.4 11.4 2
      vertex 36.6 11.4 2
    endloop
  endfacet
  facet normal 0 1 0
    outer loop
      vertex 11.4 11.4 2
      vertex 36.6 11.4 0
      vertex 11.4 11.4 0
    endloop
  endfacet
  facet normal 0 0 -1
    outer loop
      vertex 48 0 0
      vertex 36.6 11.4 0
      vertex 48 100 0
    endloop
  endfacet
  facet normal 0 0 -1
    outer loop
      vertex 48 0 0
      vertex 11.4 11.4 0
      vertex 36.6 11.4 0
    endloop
  endfacet
  facet normal -0 0 -1
    outer loop
      vertex 11.4 11.4 0
      vertex 0 0 0
      vertex 11.4 88.6 0
    endloop
  endfacet
  facet normal 0 0 -1
    outer loop
      vertex 0 0 0
      vertex 11.4 11.4 0
      vertex 48 0 0
    endloop
  endfacet
  facet normal 0 0 -1
    outer loop
      vertex 36.6 88.6 0
      vertex 48 100 0
      vertex 36.6 11.4 0
    endloop
  endfacet
  facet normal 0 0 -1
    outer loop
      vertex 11.4 88.6 0
      vertex 48 100 0
      vertex 36.6 88.6 0
    endloop
  endfacet
  facet normal 0 0 -1
    outer loop
      vertex 11.4 88.6 0
      vertex 0 100 0
      vertex 48 100 0
    endloop
  endfacet
  facet normal 0 0 -1
    outer loop
      vertex 0 100 0
      vertex 11.4 88.6 0
      vertex 0 0 0
    endloop
  endfacet
  facet normal 0 -1 0
    outer loop
      vertex 0 0 0
      vertex 48 0 6
      vertex 0 0 6
    endloop
  endfacet
  facet normal 0 -1 -0
    outer loop
      vertex 48 0 6
      vertex 0 0 0
      vertex 48 0 0
    endloop
  endfacet
  facet normal 0 1 -0
    outer loop
      vertex 48 100 0
      vertex 0 100 6
      vertex 48 100 6
    endloop
  endfacet
  facet normal 0 1 0
    outer loop
      vertex 0 100 6
      vertex 48 100 0
      vertex 0 100 0
    endloop
  endfacet
  facet normal 1 -0 0
    outer loop
      vertex 11.4 11.4 2
      vertex 11.4 88.6 0
      vertex 11.4 88.6 2
    endloop
  endfacet
  facet normal 1 0 0
    outer loop
      vertex 11.4 88.6 0
      vertex 11.4 11.4 2
      vertex 11.4 11.4 0
    endloop
  endfacet
  facet normal 0 -1 0
    outer loop
      vertex 11.4 88.6 0
      vertex 36.6 88.6 2
      vertex 11.4 88.6 2
    endloop
  endfacet
  facet normal 0 -1 -0
    outer loop
      vertex 36.6 88.6 2
      vertex 11.4 88.6 0
      vertex 36.6 88.6 0
    endloop
  endfacet
  facet normal -1 0 0
    outer loop
      vertex 36.6 11.4 0
      vertex 36.6 88.6 2
      vertex 36.6 88.6 0
    endloop
  endfacet
  facet normal -1 -0 0
    outer loop
      vertex 36.6 88.6 2
      vertex 36.6 11.4 0
      vertex 36.6 11.4 2
    endloop
  endfacet
  facet normal 0 0 1
    outer loop
      vertex 48 100 6
      vertex 46 98 6
      vertex 48 0 6
    endloop
  endfacet
  facet normal 0 0 1
    outer loop
      vertex 48 100 6
      vertex 2 98 6
      vertex 46 98 6
    endloop
  endfacet
  facet normal 0 0 1
    outer loop
      vertex 2 98 6
      vertex 0 100 6
      vertex 2 2 6
    endloop
  endfacet
  facet normal -0 0 1
    outer loop
      vertex 0 100 6
      vertex 2 98 6
      vertex 48 100 6
    endloop
  endfacet
  facet normal -0 0 1
    outer loop
      vertex 46 2 6
      vertex 48 0 6
      vertex 46 98 6
    endloop
  endfacet
  facet normal -0 0 1
    outer loop
      vertex 2 2 6
      vertex 48 0 6
      vertex 46 2 6
    endloop
  endfacet
  facet normal 0 0 1
    outer loop
      vertex 2 2 6
      vertex 0 0 6
      vertex 48 0 6
    endloop
  endfacet
  facet normal 0 0 1
    outer loop
      vertex 0 0 6
      vertex 2 2 6
      vertex 0 100 6
    endloop
  endfacet
  facet normal 0 1 -0
    outer loop
      vertex 46 2 2
      vertex 2 2 6
      vertex 46 2 6
    endloop
  endfacet
  facet normal 0 1 0
    outer loop
      vertex 2 2 6
      vertex 46 2 2
      vertex 2 2 2
    endloop
  endfacet
  facet normal 1 -0 0
    outer loop
      vertex 2 2 6
      vertex 2 98 2
      vertex 2 98 6
    endloop
  endfacet
  facet normal 1 0 0
    outer loop
      vertex 2 98 2
      vertex 2 2 6
      vertex 2 2 2
    endloop
  endfacet
  facet normal 0 -1 0
    outer loop
      vertex 2 98 2
      vertex 46 98 6
      vertex 2 98 6
    endloop
  endfacet
  facet normal 0 -1 -0
    outer loop
      vertex 46 98 6
      vertex 2 98 2
      vertex 46 98 2
    endloop
  endfacet
  facet normal -1 0 0
    outer loop
      vertex 46 2 2
      vertex 46 98 6
      vertex 46 98 2
    endloop
  endfacet
  facet normal -1 -0 0
    outer loop
      vertex 46 98 6
      vertex 46 2 2
      vertex 46 2 6
    endloop
  endfacet
  facet normal -1 0 0
    outer loop
      vertex 5.4 5.4 2
      vertex 5.4 94.6 6
      vertex 5.4 94.6 2
    endloop
  endfacet
  facet normal -1 -0 0
    outer loop
      vertex 5.4 94.6 6
      vertex 5.4 5.4 2
      vertex 5.4 5.4 6
    endloop
  endfacet
  facet normal 0 0 1
    outer loop
      vertex 42.6 94.6 6
      vertex 40.6 92.6 6
      vertex 42.6 5.4 6
    endloop
  endfacet
  facet normal 0 0 1
    outer loop
      vertex 42.6 94.6 6
      vertex 7.4 92.6 6
      vertex 40.6 92.6 6
    endloop
  endfacet
  facet normal 0 0 1
    outer loop
      vertex 7.4 92.6 6
      vertex 5.4 94.6 6
      vertex 7.4 7.4 6
    endloop
  endfacet
  facet normal -0 0 1
    outer loop
      vertex 5.4 94.6 6
      vertex 7.4 92.6 6
      vertex 42.6 94.6 6
    endloop
  endfacet
  facet normal -0 0 1
    outer loop
      vertex 40.6 7.4 6
      vertex 42.6 5.4 6
      vertex 40.6 92.6 6
    endloop
  endfacet
  facet normal -0 0 1
    outer loop
      vertex 7.4 7.4 6
      vertex 42.6 5.4 6
      vertex 40.6 7.4 6
    endloop
  endfacet
  facet normal 0 0 1
    outer loop
      vertex 7.4 7.4 6
      vertex 5.4 5.4 6
      vertex 42.6 5.4 6
    endloop
  endfacet
  facet normal 0 0 1
    outer loop
      vertex 5.4 5.4 6
      vertex 7.4 7.4 6
      vertex 5.4 94.6 6
    endloop
  endfacet
  facet normal 1 -0 0
    outer loop
      vertex 42.6 5.4 6
      vertex 42.6 94.6 2
      vertex 42.6 94.6 6
    endloop
  endfacet
  facet normal 1 0 0
    outer loop
      vertex 42.6 94.6 2
      vertex 42.6 5.4 6
      vertex 42.6 5.4 2
    endloop
  endfacet
  facet normal 0 -1 0
    outer loop
      vertex 5.4 5.4 2
      vertex 42.6 5.4 6
      vertex 5.4 5.4 6
    endloop
  endfacet
  facet normal 0 -1 -0
    outer loop
      vertex 42.6 5.4 6
      vertex 5.4 5.4 2
      vertex 42.6 5.4 2
    endloop
  endfacet
  facet normal 0 1 -0
    outer loop
      vertex 40.6 7.4 2
      vertex 7.4 7.4 6
      vertex 40.6 7.4 6
    endloop
  endfacet
  facet normal 0 1 0
    outer loop
      vertex 7.4 7.4 6
      vertex 40.6 7.4 2
      vertex 7.4 7.4 2
    endloop
  endfacet
  facet normal 0 1 -0
    outer loop
      vertex 42.6 94.6 2
      vertex 5.4 94.6 6
      vertex 42.6 94.6 6
    endloop
  endfacet
  facet normal 0 1 0
    outer loop
      vertex 5.4 94.6 6
      vertex 42.6 94.6 2
      vertex 5.4 94.6 2
    endloop
  endfacet
  facet normal 1 -0 0
    outer loop
      vertex 7.4 7.4 6
      vertex 7.4 92.6 2
      vertex 7.4 92.6 6
    endloop
  endfacet
  facet normal 1 0 0
    outer loop
      vertex 7.4 92.6 2
      vertex 7.4 7.4 6
      vertex 7.4 7.4 2
    endloop
  endfacet
  facet normal 0 -1 0
    outer loop
      vertex 7.4 92.6 2
      vertex 40.6 92.6 6
      vertex 7.4 92.6 6
    endloop
  endfacet
  facet normal 0 -1 -0
    outer loop
      vertex 40.6 92.6 6
      vertex 7.4 92.6 2
      vertex 40.6 92.6 2
    endloop
  endfacet
  facet normal -1 0 0
    outer loop
      vertex 40.6 7.4 2
      vertex 40.6 92.6 6
      vertex 40.6 92.6 2
    endloop
  endfacet
  facet normal -1 -0 0
    outer loop
      vertex 40.6 92.6 6
      vertex 40.6 7.4 2
      vertex 40.6 7.4 6
    endloop
  endfacet
  facet normal -1 0 0
    outer loop
      vertex 0 102 0
      vertex 0 202 6
      vertex 0 202 0
    endloop
  endfacet
  facet normal -1 -0 0
    outer loop
      vertex 0 202 6
      vertex 0 102 0
      vertex 0 102 6
    endloop
  endfacet
  facet normal 0 0 1
    outer loop
      vertex 46 200 2
      vertex 42.6 196.6 2
      vertex 46 104 2
    endloop
  endfacet
  facet normal 0 0 1
    outer loop
      vertex 46 200 2
      vertex 5.4 196.6 2
      vertex 42.6 196.6 2
    endloop
  endfacet
  facet normal 0 0 1
    outer loop
      vertex 5.4 196.6 2
      vertex 2 200 2
      vertex 5.4 107.4 2
    endloop
  endfacet
  facet normal -0 0 1
    outer loop
      vertex 2 200 2
      vertex 5.4 196.6 2
      vertex 46 200 2
    endloop
  endfacet
  facet normal -0 0 1
    outer loop
      vertex 42.6 107.4 2
      vertex 46 104 2
      vertex 42.6 196.6 2
    endloop
  endfacet
  facet normal -0 0 1
    outer loop
      vertex 5.4 107.4 2
      vertex 46 104 2
      vertex 42.6 107.4 2
    endloop
  endfacet
  facet normal 0 0 1
    outer loop
      vertex 5.4 107.4 2
      vertex 2 104 2
      vertex 46 104 2
    endloop
  endfacet
  facet normal 0 0 1
    outer loop
      vertex 2 104 2
      vertex 5.4 107.4 2
      vertex 2 200 2
    endloop
  endfacet
  facet normal 0 0 1
    outer loop
      vertex 40.6 194.6 2
      vertex 36.6 190.6 2
      vertex 40.6 109.4 2
    endloop
  endfacet
  facet normal 0 0 1
    outer loop
      vertex 40.6 194.6 2
      vertex 11.4 190.6 2
      vertex 36.6 190.6 2
    endloop
  endfacet
  facet normal 0 0 1
    outer loop
      vertex 11.4 190.6 2
      vertex 7.4 194.6 2
      vertex 11.4 113.4 2
    endloop
  endfacet
  facet normal -0 0 1
    outer loop
      vertex 7.4 194.6 2
      vertex 11.4 190.6 2
      vertex 40.6 194.6 2
    endloop
  endfacet
  facet normal -0 0 1
    outer loop
      vertex 36.6 113.4 2
      vertex 40.6 109.4 2
      vertex 36.6 190.6 2
    endloop
  endfacet
  facet normal -0 0 1
    outer loop
      vertex 11.4 113.4 2
      vertex 40.6 109.4 2
      vertex 36.6 113.4 2
    endloop
  endfacet
  facet normal 0 0 1
    outer loop
      vertex 11.4 113.4 2
      vertex 7.4 109.4 2
      vertex 40.6 109.4 2
    endloop
  endfacet
  facet normal 0 0 1
    outer loop
      vertex 7.4 109.4 2
      vertex 11.4 113.4 2
      vertex 7.4 194.6 2
    endloop
  endfacet
  facet normal 1 -0 0
    outer loop
      vertex 48 102 6
      vertex 48 202 0
      vertex 48 202 6
    endloop
  endfacet
  facet normal 1 0 0
    outer loop
      vertex 48 202 0
      vertex 48 102 6
      vertex 48 102 0
    endloop
  endfacet
  facet normal 0 1 -0
    outer loop
      vertex 36.6 113.4 0
      vertex 11.4 113.4 2
      vertex 36.6 113.4 2
    endloop
  endfacet
  facet normal 0 1 0
    outer loop
      vertex 11.4 113.4 2
      vertex 36.6 113.4 0
      vertex 11.4 113.4 0
    endloop
  endfacet
  facet normal 0 0 -1
    outer loop
      vertex 48 102 0
      vertex 36.6 113.4 0
      vertex 48 202 0
    endloop
  endfacet
  facet normal 0 0 -1
    outer loop
      vertex 48 102 0
      vertex 11.4 113.4 0
      vertex 36.6 113.4 0
    endloop
  endfacet
  facet normal -0 0 -1
    outer loop
      vertex 11.4 113.4 0
      vertex 0 102 0
      vertex 11.4 190.6 0
    endloop
  endfacet
  facet normal 0 0 -1
    outer loop
      vertex 0 102 0
      vertex 11.4 113.4 0
      vertex 48 102 0
    endloop
  endfacet
  facet normal 0 0 -1
    outer loop
      vertex 36.6 190.6 0
      vertex 48 202 0
      vertex 36.6 113.4 0
    endloop
  endfacet
  facet normal 0 0 -1
    outer loop
      vertex 11.4 190.6 0
      vertex 48 202 0
      vertex 36.6 190.6 0
    endloop
  endfacet
  facet normal 0 0 -1
    outer loop
      vertex 11.4 190.6 0
      vertex 0 202 0
      vertex 48 202 0
    endloop
  endfacet
  facet normal 0 0 -1
    outer loop
      vertex 0 202 0
      vertex 11.4 190.6 0
      vertex 0 102 0
    endloop
  endfacet
  facet normal 0 -1 0
    outer loop
      vertex 0 102 0
      vertex 48 102 6
      vertex 0 102 6
    endloop
  endfacet
  facet normal 0 -1 -0
    outer loop
      vertex 48 102 6
      vertex 0 102 0
      vertex 48 102 0
    endloop
  endfacet
  facet normal 0 1 -0
    outer loop
      vertex 48 202 0
      vertex 0 202 6
      vertex 48 202 6
    endloop
  endfacet
  facet normal 0 1 0
    outer loop
      vertex 0 202 6
      vertex 48 202 0
      vertex 0 202 0
    endloop
  endfacet
  facet normal 1 -0 0
    outer loop
      vertex 11.4 113.4 2
      vertex 11.4 190.6 0
      vertex 11.4 190.6 2
    endloop
  endfacet
  facet normal 1 0 0
    outer loop
      vertex 11.4 190.6 0
      vertex 11.4 113.4 2
      vertex 11.4 113.4 0
    endloop
  endfacet
  facet normal 0 -1 0
    outer loop
      vertex 11.4 190.6 0
      vertex 36.6 190.6 2
      vertex 11.4 190.6 2
    endloop
  endfacet
  facet normal 0 -1 -0
    outer loop
      vertex 36.6 190.6 2
      vertex 11.4 190.6 0
      vertex 36.6 190.6 0
    endloop
  endfacet
  facet normal -1 0 0
    outer loop
      vertex 36.6 113.4 0
      vertex 36.6 190.6 2
      vertex 36.6 190.6 0
    endloop
  endfacet
  facet normal -1 -0 0
    outer loop
      vertex 36.6 190.6 2
      vertex 36.6 113.4 0
      vertex 36.6 113.4 2
    endloop
  endfacet
  facet normal 0 0 1
    outer loop
      vertex 48 202 6
      vertex 46 200 6
      vertex 48 102 6
    endloop
  endfacet
  facet normal 0 0 1
    outer loop
      vertex 48 202 6
      vertex 2 200 6
      vertex 46 200 6
    endloop
  endfacet
  facet normal 0 0 1
    outer loop
      vertex 2 200 6
      vertex 0 202 6
      vertex 2 104 6
    endloop
  endfacet
  facet normal -0 0 1
    outer loop
      vertex 0 202 6
      vertex 2 200 6
      vertex 48 202 6
    endloop
  endfacet
  facet normal -0 0 1
    outer loop
      vertex 46 104 6
      vertex 48 102 6
      vertex 46 200 6
    endloop
  endfacet
  facet normal -0 0 1
    outer loop
      vertex 2 104 6
      vertex 48 102 6
      vertex 46 104 6
    endloop
  endfacet
  facet normal 0 0 1
    outer loop
      vertex 2 104 6
      vertex 0 102 6
      vertex 48 102 6
    endloop
  endfacet
  facet normal 0 0 1
    outer loop
      vertex 0 102 6
      vertex 2 104 6
      vertex 0 202 6
    endloop
  endfacet
  facet normal 0 1 -0
    outer loop
      vertex 46 104 2
      vertex 2 104 6
      vertex 46 104 6
    endloop
  endfacet
  facet normal 0 1 0
    outer loop
      vertex 2 104 6
      vertex 46 104 2
      vertex 2 104 2
    endloop
  endfacet
  facet normal 1 -0 0
    outer loop
      vertex 2 104 6
      vertex 2 200 2
      vertex 2 200 6
    endloop
  endfacet
  facet normal 1 0 0
    outer loop
      vertex 2 200 2
      vertex 2 104 6
      vertex 2 104 2
    endloop
  endfacet
  facet normal 0 -1 0
    outer loop
      vertex 2 200 2
      vertex 46 200 6
      vertex 2 200 6
    endloop
  endfacet
  facet normal 0 -1 -0
    outer loop
      vertex 46 200 6
      vertex 2 200 2
      vertex 46 200 2
    endloop
  endfacet
  facet normal -1 0 0
    outer loop
      vertex 46 104 2
      vertex 46 200 6
      vertex 46 200 2
    endloop
  endfacet
  facet normal -1 -0 0
    outer loop
      vertex 46 200 6
      vertex 46 104 2
      vertex 46 104 6
    endloop
  endfacet
  facet normal -1 0 0
    outer loop
      vertex 5.4 107.4 2
      vertex 5.4 196.6 6
      vertex 5.4 196.6 2
    endloop
  endfacet
  facet normal -1 -0 0
    outer loop
      vertex 5.4 196.6 6
      vertex 5.4 107.4 2
      vertex 5.4 107.4 6
    endloop
  endfacet
  facet normal 0 0 1
    outer loop
      vertex 42.6 196.6 6
      vertex 40.6 194.6 6
      vertex 42.6 107.4 6
    endloop
  endfacet
  facet normal 0 0 1
    outer loop
      vertex 42.6 196.6 6
      vertex 7.4 194.6 6
      vertex 40.6 194.6 6
    endloop
  endfacet
  facet normal 0 0 1
    outer loop
      vertex 7.4 194.6 6
      vertex 5.4 196.6 6
      vertex 7.4 109.4 6
    endloop
  endfacet
  facet normal -0 0 1
    outer loop
      vertex 5.4 196.6 6
      vertex 7.4 194.6 6
      vertex 42.6 196.6 6
    endloop
  endfacet
  facet normal -0 0 1
    outer loop
      vertex 40.6 109.4 6
      vertex 42.6 107.4 6
      vertex 40.6 194.6 6
    endloop
  endfacet
  facet normal -0 0 1
    outer loop
      vertex 7.4 109.4 6
      vertex 42.6 107.4 6
      vertex 40.6 109.4 6
    endloop
  endfacet
  facet normal 0 0 1
    outer loop
      vertex 7.4 109.4 6
      vertex 5.4 107.4 6
      vertex 42.6 107.4 6
    endloop
  endfacet
  facet normal 0 0 1
    outer loop
      vertex 5.4 107.4 6
      vertex 7.4 109.4 6
      vertex 5.4 196.6 6
    endloop
  endfacet
  facet normal 1 -0 0
    outer loop
      vertex 42.6 107.4 6
      vertex 42.6 196.6 2
      vertex 42.6 196.6 6
    endloop
  endfacet
  facet normal 1 0 0
    outer loop
      vertex 42.6 196.6 2
      vertex 42.6 107.4 6
      vertex 42.6 107.4 2
    endloop
  endfacet
  facet normal 0 -1 0
    outer loop
      vertex 5.4 107.4 2
      vertex 42.6 107.4 6
      vertex 5.4 107.4 6
    endloop
  endfacet
  facet normal 0 -1 -0
    outer loop
      vertex 42.6 107.4 6
      vertex 5.4 107.4 2
      vertex 42.6 107.4 2
    endloop
  endfacet
  facet normal 0 1 -0
    outer loop
      vertex 40.6 109.4 2
      vertex 7.4 109.4 6
      vertex 40.6 109.4 6
    endloop
  endfacet
  facet normal 0 1 0
    outer loop
      vertex 7.4 109.4 6
      vertex 40.6 109.4 2
      vertex 7.4 109.4 2
    endloop
  endfacet
  facet normal 0 1 -0
    outer loop
      vertex 42.6 196.6 2
      vertex 5.4 196.6 6
      vertex 42.6 196.6 6
    endloop
  endfacet
  facet normal 0 1 0
    outer loop
      vertex 5.4 196.6 6
      vertex 42.6 196.6 2
      vertex 5.4 196.6 2
    endloop
  endfacet
  facet normal 1 -0 0
    outer loop
      vertex 7.4 109.4 6
      vertex 7.4 194.6 2
      vertex 7.4 194.6 6
    endloop
  endfacet
  facet normal 1 0 0
    outer loop
      vertex 7.4 194.6 2
      vertex 7.4 109.4 6
      vertex 7.4 109.4 2
    endloop
  endfacet
  facet normal 0 -1 0
    outer loop
      vertex 7.4 194.6 2
      vertex 40.6 194.6 6
      vertex 7.4 194.6 6
    endloop
  endfacet
  facet normal 0 -1 -0
    outer loop
      vertex 40.6 194.6 6
      vertex 7.4 194.6 2
      vertex 40.6 194.6 2
    endloop
  endfacet
  facet normal -1 0 0
    outer loop
      vertex 40.6 109.4 2
      vertex 40.6 194.6 6
      vertex 40.6 194.6 2
    endloop
  endfacet
  facet normal -1 -0 0
    outer loop
      vertex 40.6 194.6 6
      vertex 40.6 109.4 2
      vertex 40.6 109.4 6
    endloop
  endfacet
endsolid OpenSCAD_Model
